<svg xmlns="http://www.w3.org/2000/svg" viewBox="0 0 512 512">
  <rect width="512" height="512" rx="116" fill="#151525"/>
  <path d="M95 334c0-61 48-108 107-108h109c56 0 101 37 106 87h19c19 0 34 15 34 34s-15 34-34 34H221c-70 0-126-19-126-47Z" fill="#ddf45c"/>
  <circle cx="202" cy="282" r="62" fill="#151525"/>
  <path d="M202 244c27 0 49 17 49 38s-22 38-49 38-49-17-49-38 22-38 49-38Zm0 19c-14 0-25 8-25 19s11 19 25 19 25-8 25-19-11-19-25-19Z" fill="#ddf45c"/>
  <path d="M387 231c4-26 19-47 42-60M417 239c17-20 38-31 62-32" fill="none" stroke="#ddf45c" stroke-linecap="round" stroke-width="13"/>
  <circle cx="431" cy="165" r="9" fill="#ff745f"/>
  <circle cx="479" cy="207" r="9" fill="#ff745f"/>
  <path d="M122 380h273" stroke="#75d9e9" stroke-linecap="round" stroke-width="10" opacity=".9"/>
</svg>
